<?xml version="1.0" encoding="UTF-8" standalone="no"?>
<svg width="74px" height="34px" viewBox="0 0 74 34" version="1.1" xmlns="http://www.w3.org/2000/svg" xmlns:xlink="http://www.w3.org/1999/xlink">
    <!-- Generator: Sketch 41.2 (35397) - http://www.bohemiancoding.com/sketch -->
    <title>Shape</title>
    <desc>Created with Sketch.</desc>
    <defs></defs>
    <g id="Page-1-Copy" stroke="none" stroke-width="1" fill="none" fill-rule="evenodd">
        <g id="link-arrow" transform="translate(37.000000, 17.000000) rotate(90.000000) translate(-37.000000, -17.000000) translate(20.000000, -20.000000)" fill="#DD9D40">
            <path d="M4.581,72.634 C11.791,64.031 21.799,55.603 24.317,44.257 C26.733,33.366 23.919,20.319 20.884,9.519 C23.729,11.473 26.464,13.591 29.181,15.763 C31.671,17.753 35.235,14.24 32.716,12.227 C27.462,8.027 22.179,3.923 16.183,0.821 C14.825,0.119 12.854,0.714 12.53,2.361 C11.463,7.771 10.484,13.184 8.53,18.36 C7.392,21.373 12.239,22.622 13.368,19.63 C14.488,16.665 15.282,13.619 15.962,10.545 C18.65,20.239 20.56,30.604 19.823,40.631 C18.991,51.977 7.931,60.885 1.045,69.099 C-1.01,71.548 2.509,75.105 4.581,72.634 Z" id="Shape"></path>
        </g>
    </g>
</svg>